<svg xmlns="http://www.w3.org/2000/svg" viewBox="0 0 237.08 56.00" width="237.08" height="56.00" fill="none" role="img" aria-label="PalmWatch"><title>PalmWatch</title><g transform="translate(0.00,0.00) scale(1.00000)"><polygon points="28,4 50,16 50,40 28,52 6,40 6,16" fill="none" stroke="#14361F" stroke-width="2.5" stroke-linejoin="miter"/><line x1="28" y1="4" x2="28" y2="52" stroke="#14361F" stroke-width="1.0" stroke-opacity="0.35"/><line x1="6" y1="16" x2="50" y2="40" stroke="#14361F" stroke-width="1.0" stroke-opacity="0.35"/><line x1="50" y1="16" x2="6" y2="40" stroke="#14361F" stroke-width="1.0" stroke-opacity="0.35"/><circle cx="28" cy="28" r="4.5" fill="#14361F"/></g><g transform="translate(74.00,38.50)" fill="#14361F"><path d="M66 0V700H354Q420 700 470.5 673.5Q521 647 549.5 599.0Q578 551 578 485V471Q578 406 548.5 357.5Q519 309 468.5 282.5Q418 256 354 256H198V0ZM198 376H341Q388 376 417.0 402.0Q446 428 446 473V483Q446 528 417.0 554.0Q388 580 341 580H198Z" transform="translate(0.00,0) scale(0.030000,-0.030000)"/><path d="M224 -14Q171 -14 129.0 4.5Q87 23 62.5 58.5Q38 94 38 145Q38 196 62.5 230.5Q87 265 130.5 282.5Q174 300 230 300H366V328Q366 363 344.0 385.5Q322 408 274 408Q227 408 204.0 386.5Q181 365 174 331L58 370Q70 408 96.5 439.5Q123 471 167.5 490.5Q212 510 276 510Q374 510 431.0 461.0Q488 412 488 319V134Q488 104 516 104H556V0H472Q435 0 411.0 18.0Q387 36 387 66V67H368Q364 55 350.0 35.5Q336 16 306.0 1.0Q276 -14 224 -14ZM246 88Q299 88 332.5 117.5Q366 147 366 196V206H239Q204 206 184.0 191.0Q164 176 164 149Q164 122 185.0 105.0Q206 88 246 88Z" transform="translate(18.12,0) scale(0.030000,-0.030000)"/><path d="M70 0V700H196V0Z" transform="translate(35.46,0) scale(0.030000,-0.030000)"/><path d="M70 0V496H194V442H212Q225 467 255.0 485.5Q285 504 334 504Q387 504 419.0 483.5Q451 463 468 430H486Q503 462 534.0 483.0Q565 504 622 504Q668 504 705.5 484.5Q743 465 765.5 425.5Q788 386 788 326V0H662V317Q662 358 641.0 378.5Q620 399 582 399Q539 399 515.5 371.5Q492 344 492 293V0H366V317Q366 358 345.0 378.5Q324 399 286 399Q243 399 219.5 371.5Q196 344 196 293V0Z" transform="translate(43.44,0) scale(0.030000,-0.030000)"/><path d="M122 0 30 700H161L229 92H247L335 700H563L651 92H669L737 700H868L776 0H548L458 622H440L350 0Z" transform="translate(69.06,0) scale(0.030000,-0.030000)"/><path d="M224 -14Q171 -14 129.0 4.5Q87 23 62.5 58.5Q38 94 38 145Q38 196 62.5 230.5Q87 265 130.5 282.5Q174 300 230 300H366V328Q366 363 344.0 385.5Q322 408 274 408Q227 408 204.0 386.5Q181 365 174 331L58 370Q70 408 96.5 439.5Q123 471 167.5 490.5Q212 510 276 510Q374 510 431.0 461.0Q488 412 488 319V134Q488 104 516 104H556V0H472Q435 0 411.0 18.0Q387 36 387 66V67H368Q364 55 350.0 35.5Q336 16 306.0 1.0Q276 -14 224 -14ZM246 88Q299 88 332.5 117.5Q366 147 366 196V206H239Q204 206 184.0 191.0Q164 176 164 149Q164 122 185.0 105.0Q206 88 246 88Z" transform="translate(96.00,0) scale(0.030000,-0.030000)"/><path d="M260 0Q211 0 180.5 30.5Q150 61 150 112V392H26V496H150V650H276V496H412V392H276V134Q276 104 304 104H400V0Z" transform="translate(113.34,0) scale(0.030000,-0.030000)"/><path d="M303 -14Q231 -14 172.5 16.0Q114 46 80.0 103.0Q46 160 46 241V255Q46 336 80.0 393.0Q114 450 172.5 480.0Q231 510 303 510Q374 510 425.0 485.0Q476 460 507.5 416.5Q539 373 549 318L427 292Q423 322 409.0 346.0Q395 370 369.5 384.0Q344 398 306 398Q268 398 237.5 381.5Q207 365 189.5 332.5Q172 300 172 253V243Q172 196 189.5 163.5Q207 131 237.5 114.5Q268 98 306 98Q363 98 392.5 127.5Q422 157 430 205L552 176Q539 123 507.5 79.5Q476 36 425.0 11.0Q374 -14 303 -14Z" transform="translate(127.02,0) scale(0.030000,-0.030000)"/><path d="M70 0V700H196V435H214Q222 451 239.0 467.0Q256 483 284.5 493.5Q313 504 357 504Q415 504 458.5 477.5Q502 451 526.0 404.5Q550 358 550 296V0H424V286Q424 342 396.5 370.0Q369 398 318 398Q260 398 228.0 359.5Q196 321 196 252V0Z" transform="translate(144.60,0) scale(0.030000,-0.030000)"/></g></svg>
